<?xml version="1.0" encoding="UTF-8"?>
<!-- Adjusted layout: symmetric vertical margins and increased horizontal padding -->
<svg xmlns="http://www.w3.org/2000/svg" viewBox="0 0 1500 800" width="1500" height="800">
  <style>
    #text-human {
      fill: #0b57b8;
    }
    .disc-border {
      stroke: #f5f2f2;
    }

    @media (prefers-color-scheme: dark) {
      #text-human {
        fill: #2bb7f0;
      }
      .disc-border {
        stroke: #555555;
      }
    }
  </style>

  <defs>
    <clipPath id="discClip">
      <circle cx="420" cy="400" r="300" />
    </clipPath>
  </defs>

  <g clip-path="url(#discClip)">
    <rect x="120" y="100" width="600" height="60" fill="#0b1a4a" />
    <rect x="120" y="160" width="600" height="60" fill="#0a2b7a" />
    <rect x="120" y="220" width="600" height="60" fill="#0b3aa0" />
    <rect x="120" y="280" width="600" height="60" fill="#0b57b8" />
    <rect x="120" y="340" width="600" height="60" fill="#0e77cf" />
    <rect x="120" y="400" width="600" height="60" fill="#1293e0" />
    <rect x="120" y="460" width="600" height="60" fill="#1ea6e7" />
    <rect x="120" y="520" width="600" height="60" fill="#2bb7f0" />
    <rect x="120" y="580" width="600" height="60" fill="#3bcdf4" />
    <rect x="120" y="640" width="600" height="60" fill="#54ddff" />
  </g>

  <circle cx="420" cy="400" r="300" fill="none" stroke-width="1" class="disc-border" />


  <path id="text-human" transform="translate(850, 309)" aria-label="human"
    d="M-2.6226e-06 135V7.15256e-07H16.38V62.1L10.62 61.74C14.76 56.52 19.2 52.44 23.94 49.5C28.74 46.5 34.86 45 42.3 45C49.92 45 56.28 46.71 61.38 50.13C66.48 53.55 70.29 58.32 72.81 64.44C75.39 70.56 76.68 77.7 76.68 85.86V135H60.48V87.84C60.48 78.12 58.68 70.95 55.08 66.33C51.54 61.71 46.08 59.4 38.7 59.4C33.12 59.4 28.17 60.9 23.85 63.9C19.59 66.9 16.2 70.92 13.68 75.96L16.38 66.06V135H-2.6226e-06ZM129.419 136.8C122.519 136.8 116.639 135.42 111.779 132.66C106.919 129.84 103.199 125.58 100.619 119.88C98.0986 114.18 96.8386 106.92 96.8386 98.1V46.8H113.039V93.6C113.039 102.96 114.629 110.1 117.809 115.02C121.049 119.94 126.299 122.4 133.559 122.4C138.539 122.4 143.159 121.2 147.419 118.8C151.679 116.4 154.619 112.56 156.239 107.28L153.899 116.1V46.8H170.099V135H155.699L152.459 117.72L156.779 120.6C153.839 126.06 150.239 130.14 145.979 132.84C141.779 135.48 136.259 136.8 129.419 136.8ZM192.133 135V46.8H204.733L207.973 63.72L201.853 60.84C207.373 54.9 212.743 50.79 217.963 48.51C223.183 46.17 228.673 45 234.433 45C238.753 45 242.893 45.72 246.853 47.16C250.873 48.54 254.473 51 257.653 54.54C260.893 58.02 263.473 62.88 265.393 69.12L260.893 67.14C263.533 60.3 267.583 54.9 273.043 50.94C278.503 46.98 285.853 45 295.093 45C302.473 45 308.683 46.38 313.723 49.14C318.763 51.84 322.543 56.01 325.063 61.65C327.643 67.23 328.933 74.34 328.933 82.98V135H312.733V83.16C312.733 74.88 311.113 68.85 307.873 65.07C304.633 61.29 299.353 59.4 292.033 59.4C286.873 59.4 282.733 60.21 279.613 61.83C276.493 63.39 274.123 65.43 272.503 67.95C270.943 70.47 269.893 73.14 269.353 75.96C268.873 78.78 268.633 81.42 268.633 83.88V135H252.433V86.4C252.433 79.2 251.563 73.65 249.823 69.75C248.083 65.85 245.653 63.15 242.533 61.65C239.413 60.15 235.813 59.4 231.733 59.4C225.793 59.4 220.483 60.72 215.803 63.36C211.123 65.94 207.973 70.08 206.353 75.78L208.333 66.96V135H192.133ZM370.505 136.8C365.045 136.8 360.275 135.69 356.195 133.47C352.115 131.25 348.935 128.22 346.655 124.38C344.435 120.54 343.325 116.16 343.325 111.24C343.325 106.26 344.405 102 346.565 98.46C348.785 94.86 351.725 91.89 355.385 89.55C359.105 87.15 363.245 85.26 367.805 83.88C372.365 82.44 377.075 81.42 381.935 80.82C386.855 80.16 391.565 79.8 396.065 79.74C396.065 71.34 394.415 65.85 391.115 63.27C387.815 60.69 383.045 59.4 376.805 59.4C373.505 59.4 369.965 59.91 366.185 60.93C362.465 61.95 358.265 64.08 353.585 67.32L351.245 54.18C354.785 51.48 359.195 49.29 364.475 47.61C369.755 45.87 375.305 45 381.125 45C388.565 45 394.565 46.32 399.125 48.96C403.685 51.54 407.015 55.92 409.115 62.1C411.215 68.28 412.265 76.68 412.265 87.3V105.3C412.265 109.5 412.445 112.98 412.805 115.74C413.225 118.44 414.125 120.48 415.505 121.86C416.945 123.18 419.225 123.84 422.345 123.84H423.965L421.445 136.8H420.185C414.965 136.8 410.915 136.29 408.035 135.27C405.215 134.25 403.055 132.78 401.555 130.86C400.055 128.94 398.705 126.6 397.505 123.84C394.205 127.68 390.305 130.8 385.805 133.2C381.305 135.6 376.205 136.8 370.505 136.8ZM373.565 123.84C377.885 123.84 382.055 122.76 386.075 120.6C390.155 118.44 393.485 115.56 396.065 111.96V90.9C387.485 91.2 380.525 92.04 375.185 93.42C369.905 94.8 366.035 96.87 363.575 99.63C361.115 102.39 359.885 105.96 359.885 110.34C359.885 115.08 361.145 118.53 363.665 120.69C366.245 122.79 369.545 123.84 373.565 123.84ZM436.469 135V46.8H449.069L452.309 63.72L446.009 61.02C451.949 54.42 457.739 50.1 463.379 48.06C469.079 46.02 474.629 45 480.029 45C492.929 45 502.139 48.72 507.659 56.16C513.239 63.6 516.029 73.68 516.029 86.4V135H499.829V86.4C499.829 77.04 498.089 70.2 494.609 65.88C491.129 61.56 485.189 59.4 476.789 59.4C470.849 59.4 465.389 60.72 460.409 63.36C455.489 65.94 452.249 70.08 450.689 75.78L452.669 65.88V135H436.469Z"
    fill="black" />


  <!--
<text x="840" y="400" text-anchor="start" dominant-baseline="middle"
font-family="Cabin, Lato, Gill Sans, Segoe UI, Calibri, sans-serif"
font-size="180" fill="#0b2b6a" letter-spacing="4">
human
</text>
-->
</svg>